# xmcd
#
# Track frame offsets:
#	150
#	16687
#	33055
#	53539
#	71241
#	95227
#	114682
#	129174
#	153253
#	177090
#	198709
#	213836
#	229488
#
# Disc length: 3299 seconds
#
# Revision: 0
# Processed by: cddbd v1.5PL3 Copyright (c) Steve Scherf et al.
# Submitted via: dBpowerAMP V4.0
#
DISCID=ab0ce10d
DTITLE=Rockin' Dopsie Jr. and the Zydeco Twisters - Best of Rockin' Dopsie Jr. and the Zydeco Twisters
DYEAR=1900
DGENRE=Cajun
TTITLE0=Hot Tamae Baby (House Mix)
TTITLE1=They All Asked For You
TTITLE2=Jambalaya
TTITLE3=Zydeco People
TTITLE4=Let The Good Times Roll
TTITLE5=Lucille
TTITLE6=Love The One You're With
TTITLE7=Bring Back The Old Time Zydeco
TTITLE8=I'm Coming Home
TTITLE9=Show Me How To Zydeco
TTITLE10=How Sweet It Is
TTITLE11=The Washboard Man
TTITLE12=Listen To The Music
EXTD=
EXTT0=
EXTT1=
EXTT2=
EXTT3=
EXTT4=
EXTT5=
EXTT6=
EXTT7=
EXTT8=
EXTT9=
EXTT10=
EXTT11=
EXTT12=
PLAYORDER=
